<?xml version="1.0" encoding="iso-8859-1"?>
<!-- Generator: Adobe Illustrator 19.0.0, SVG Export Plug-In . SVG Version: 6.00 Build 0)  -->
<svg version="1.1" id="Layer_1" xmlns="http://www.w3.org/2000/svg" xmlns:xlink="http://www.w3.org/1999/xlink" x="0px" y="0px"
	 viewBox="0 0 512 512" style="enable-background:new 0 0 512 512;" xml:space="preserve">
<g>
	<path style="fill:#808080;" d="M387.963,242.391c10.363,0,18.795-8.432,18.795-18.798c0-10.365-8.432-18.797-18.795-18.797h-2.507
		v37.702l2.231-0.101C387.779,242.394,387.872,242.391,387.963,242.391z"/>
	<path style="fill:#808080;" d="M283.213,223.595c0-10.365-8.433-18.797-18.798-18.797h-2.507V242.5c0,0,2.415-0.009,2.507-0.009
		C274.417,242.491,283.213,233.959,283.213,223.595z"/>
	<path style="fill:#808080;" d="M434.264,405.239c7.24,1.906,14.761,4.123,22.15,6.663v-264.47
		c0-47.972-56.006-86.999-124.848-86.999s-124.848,39.028-124.848,86.999V387.03c16.063-0.837,32.548-1.265,49.28-1.265
		C323.261,385.765,386.57,392.681,434.264,405.239z M405.53,276.191c-1.134,1.133-2.705,1.79-4.299,1.79
		c-1.607,0-3.178-0.658-4.311-1.79c-1.133-1.133-1.778-2.703-1.778-4.299c0-1.607,0.645-3.178,1.778-4.311
		c1.133-1.133,2.704-1.778,4.311-1.778s3.166,0.645,4.299,1.778c1.133,1.133,1.79,2.703,1.79,4.311
		C407.32,273.487,406.662,275.058,405.53,276.191z M373.278,198.709c0-3.362,2.725-6.089,6.089-6.089h8.596
		c17.078,0,30.973,13.895,30.973,30.974c0,17.031-13.816,30.895-30.827,30.974l-2.652,0.121v17.199c0,3.362-2.725,6.089-6.089,6.089
		s-6.089-2.727-6.089-6.089v-73.179H373.278z M348.793,267.581c1.133-1.133,2.703-1.778,4.311-1.778
		c1.606,0,3.177,0.645,4.311,1.778c1.133,1.133,1.778,2.703,1.778,4.311c0,1.595-0.645,3.166-1.778,4.299
		c-1.134,1.133-2.705,1.79-4.311,1.79c-1.608,0-3.178-0.658-4.311-1.79c-1.134-1.133-1.778-2.691-1.778-4.299
		C347.015,270.285,347.659,268.714,348.793,267.581z M325.479,198.709c0-3.362,2.725-6.089,6.089-6.089s6.089,2.727,6.089,6.089
		v73.179c0,3.362-2.725,6.089-6.089,6.089s-6.089-2.727-6.089-6.089V198.709z M300.677,267.581c1.134-1.133,2.691-1.778,4.299-1.778
		s3.178,0.645,4.311,1.778c1.133,1.133,1.778,2.703,1.778,4.311c0,1.595-0.645,3.166-1.778,4.299
		c-1.133,1.133-2.703,1.79-4.311,1.79c-1.608,0-3.166-0.658-4.299-1.79c-1.133-1.133-1.79-2.703-1.79-4.299
		C298.887,270.285,299.546,268.714,300.677,267.581z M249.73,271.889v-73.179c0-3.362,2.725-6.089,6.089-6.089h8.596
		c17.079,0,30.976,13.895,30.976,30.974c0,11.211-5.988,21.048-14.934,26.486l8.313,19.412c1.324,3.092-0.11,6.671-3.202,7.994
		c-0.782,0.335-1.594,0.493-2.394,0.493c-2.363,0-4.611-1.385-5.601-3.694l-8.59-20.058c-3.434,0.593-7.077,0.463-7.077,0.463
		v17.199c0,3.362-2.725,6.089-6.089,6.089C252.454,277.977,249.73,275.251,249.73,271.889z"/>
</g>
<path style="fill:#333333;" d="M402.719,62.6c8.943,3.933,17.327,8.618,24.961,14.045c26.382,18.756,40.912,43.895,40.912,70.785
	v269.025c12.197,4.991,23.3,10.976,31.23,18.055V147.432C499.822,106.104,458.252,71.416,402.719,62.6z"/>
<path style="fill:#754C24;" d="M256,397.943c-133.426,0-229.298,27.134-242.311,53.624h484.62
	C485.298,425.077,389.426,397.943,256,397.943z"/>
<path d="M471.088,76.646c-25.753-18.308-59.886-28.392-96.114-28.392c0,0-42.669,0-43.408,0c-36.228,0-70.361,10.083-96.114,28.392
	c-26.382,18.756-40.912,43.895-40.912,70.785v240.315c-43.794,2.884-83.996,8.853-116.805,17.491C42.273,414.576,0,431.25,0,457.656
	c0,3.362,2.725,6.089,6.089,6.089h499.822c3.364,0,6.089-2.727,6.089-6.089V147.432C512,120.54,497.471,95.402,471.088,76.646z
	 M206.72,147.432c0-47.972,56.006-86.999,124.848-86.999s124.848,39.028,124.848,86.999V411.9c-7.39-2.538-14.911-4.755-22.15-6.663
	c-47.692-12.557-111.001-19.474-178.264-19.474c-16.731,0-33.216,0.429-49.28,1.265V147.432H206.72z M13.689,451.567
	C26.702,425.077,122.573,397.943,256,397.943s229.298,27.134,242.31,53.624H13.689z M499.822,434.512
	c-7.93-7.079-19.033-13.064-31.23-18.055V147.432c0-26.891-14.529-52.03-40.912-70.785c-7.634-5.428-16.018-10.113-24.961-14.045
	c55.532,8.816,97.102,43.502,97.102,84.831v287.079H499.822z"/>
<path d="M331.567,277.977c3.364,0,6.089-2.727,6.089-6.089v-73.179c0-3.362-2.725-6.089-6.089-6.089s-6.089,2.727-6.089,6.089
	v73.179C325.479,275.251,328.204,277.977,331.567,277.977z"/>
<path d="M379.367,277.977c3.364,0,6.089-2.727,6.089-6.089V254.69l2.652-0.121c17.013-0.079,30.827-13.944,30.827-30.974
	c0-17.079-13.894-30.974-30.973-30.974h-8.596c-3.364,0-6.089,2.727-6.089,6.089v73.179
	C373.278,275.251,376.005,277.977,379.367,277.977z M385.456,204.798h2.507c10.363,0,18.795,8.432,18.795,18.797
	s-8.432,18.798-18.795,18.798c-0.091,0-0.184,0.002-0.276,0.006l-2.231,0.101V204.798z"/>
<path d="M261.908,271.889V254.69c0,0,3.641,0.13,7.077-0.463l8.59,20.058c0.99,2.309,3.237,3.694,5.601,3.694
	c0.8,0,1.612-0.158,2.394-0.493c3.092-1.324,4.525-4.903,3.202-7.994l-8.313-19.412c8.946-5.437,14.934-15.276,14.934-26.486
	c0-17.079-13.895-30.974-30.976-30.974h-8.596c-3.364,0-6.089,2.727-6.089,6.089v73.179c0,3.362,2.725,6.089,6.089,6.089
	S261.908,275.251,261.908,271.889z M261.908,204.798h2.507c10.365,0,18.798,8.432,18.798,18.797s-8.796,18.896-18.798,18.896
	c-0.091,0-2.507,0.009-2.507,0.009V204.798z"/>
<path d="M304.976,277.981c1.607,0,3.178-0.658,4.311-1.79c1.133-1.133,1.778-2.703,1.778-4.299c0-1.607-0.645-3.178-1.778-4.311
	c-1.133-1.133-2.703-1.778-4.311-1.778c-1.608,0-3.166,0.645-4.299,1.778c-1.133,1.133-1.79,2.703-1.79,4.311
	c0,1.595,0.658,3.166,1.79,4.299C301.811,277.324,303.368,277.981,304.976,277.981z"/>
<path d="M353.104,277.981c1.606,0,3.177-0.658,4.311-1.79c1.133-1.133,1.778-2.703,1.778-4.299c0-1.607-0.645-3.178-1.778-4.311
	c-1.134-1.133-2.705-1.778-4.311-1.778c-1.607,0-3.178,0.645-4.311,1.778c-1.134,1.133-1.778,2.703-1.778,4.311
	c0,1.608,0.644,3.166,1.778,4.299C349.926,277.324,351.497,277.981,353.104,277.981z"/>
<path d="M401.231,265.803c-1.607,0-3.178,0.645-4.311,1.778c-1.133,1.133-1.778,2.703-1.778,4.311c0,1.595,0.645,3.166,1.778,4.299
	c1.133,1.133,2.704,1.79,4.311,1.79c1.594,0,3.166-0.658,4.299-1.79c1.133-1.133,1.79-2.703,1.79-4.299
	c0-1.607-0.658-3.178-1.79-4.311C404.396,266.449,402.839,265.803,401.231,265.803z"/>
<g>
</g>
<g>
</g>
<g>
</g>
<g>
</g>
<g>
</g>
<g>
</g>
<g>
</g>
<g>
</g>
<g>
</g>
<g>
</g>
<g>
</g>
<g>
</g>
<g>
</g>
<g>
</g>
<g>
</g>
</svg>
